<svg xmlns="http://www.w3.org/2000/svg" width="1024" height="1024" viewBox="0 0 1024 1024">
  <defs>
    <linearGradient id="bg" x1="0" y1="0" x2="1" y2="1">
      <stop offset="0%" stop-color="#123F82"/>
      <stop offset="100%" stop-color="#061C3F"/>
    </linearGradient>
    <linearGradient id="gold" x1="0" y1="0" x2="1" y2="1">
      <stop offset="0%" stop-color="#FFD35A"/>
      <stop offset="100%" stop-color="#F2A100"/>
    </linearGradient>
    <filter id="shadow" x="-20%" y="-20%" width="140%" height="140%">
      <feDropShadow dx="0" dy="18" stdDeviation="22" flood-color="#000000" flood-opacity="0.28"/>
    </filter>
  </defs>

  <rect width="1024" height="1024" rx="210" fill="url(#bg)"/>

  <path d="M730 208C802 268 841 349 839 431C837 516 789 589 723 633C758 548 750 436 697 357C662 304 608 260 548 236C611 225 675 233 730 208Z" fill="url(#gold)" opacity="0.95"/>

  <g filter="url(#shadow)">
    <path d="M512 670C451 600 341 574 214 604C185 611 165 637 165 667V785C165 815 193 837 222 830C349 800 441 819 512 884Z" fill="#F8FAFF"/>
    <path d="M512 670C573 600 683 574 810 604C839 611 859 637 859 667V785C859 815 831 837 802 830C675 800 583 819 512 884Z" fill="#F8FAFF"/>
    <path d="M512 884C441 819 349 800 222 830C193 837 165 815 165 785V810C165 840 193 862 222 855C349 825 441 844 512 909Z" fill="#DCE6F6"/>
    <path d="M512 884C583 819 675 800 802 830C831 837 859 815 859 785V810C859 840 831 862 802 855C675 825 583 844 512 909Z" fill="#DCE6F6"/>
    <path d="M512 670V909" stroke="#0B2A5B" stroke-width="10" stroke-linecap="round" opacity="0.25"/>
  </g>

  <g filter="url(#shadow)">
    <path d="M512 170C373 170 260 269 260 391C260 492 338 577 444 603L501 686C510 699 531 693 531 677V614C660 606 764 510 764 391C764 269 651 170 512 170Z" fill="#FFFFFF"/>
    <text x="512" y="435" text-anchor="middle" font-family="Arial, Helvetica, sans-serif" font-size="185" font-weight="900" fill="#08275A">EN</text>
  </g>

  <path d="M668 784H750V916L709 889L668 916Z" fill="url(#gold)" filter="url(#shadow)"/>
</svg>